<svg width="292" height="249" viewBox="0 0 292 249" fill="none" xmlns="http://www.w3.org/2000/svg">
<rect x="98.5" y="10" width="96" height="82" rx="10" fill="#144066"/>
<path d="M144.017 73.5H140.512C131.55 73.5 127.07 73.5 124.285 70.6625C121.5 67.825 121.5 63.2575 121.5 54.125C121.5 44.9925 121.5 40.425 124.285 37.5875C127.07 34.75 131.55 34.75 140.512 34.75H150.02C158.983 34.75 163.465 34.75 166.25 37.5875C168.392 39.77 168.885 42.9775 169 48.5" stroke="white" stroke-width="1.5" stroke-linecap="round" stroke-linejoin="round"/>
<path d="M166.543 71.0575L171.5 76M156.5 34.75L156.25 33.975C155.012 30.125 154.395 28.2 152.923 27.1C151.448 26 149.493 26 145.575 26H144.917C141.005 26 139.048 26 137.575 27.1C136.1 28.2 135.483 30.125 134.245 33.975L134 34.75M169.132 64.815C169.152 63.6447 168.939 62.4823 168.505 61.3954C168.07 60.3085 167.424 59.3189 166.603 58.4843C165.783 57.6498 164.804 56.987 163.725 56.5345C162.645 56.0821 161.487 55.849 160.316 55.849C159.146 55.849 157.987 56.0821 156.908 56.5345C155.828 56.987 154.85 57.6498 154.029 58.4843C153.208 59.3189 152.562 60.3085 152.128 61.3954C151.694 62.4823 151.48 63.6447 151.5 64.815C151.539 67.1275 152.485 69.3321 154.134 70.9537C155.783 72.5753 158.003 73.484 160.316 73.484C162.629 73.484 164.849 72.5753 166.498 70.9537C168.148 69.3321 169.094 67.1275 169.132 64.815Z" stroke="white" stroke-width="1.5" stroke-linecap="round" stroke-linejoin="round"/>
<rect x="185" y="73.5" width="18" height="18" rx="7" fill="#D9D9D9"/>
<rect x="185" y="73.5" width="18" height="18" rx="7" stroke="white"/>
<path d="M194 87V82.5M194 82.5V78M194 82.5H198.5M194 82.5H189.5" stroke="black" stroke-width="2" stroke-linecap="round"/>
<path d="M12.2855 145V134.5H13.8905L20.4755 142.585H19.6805V134.5H21.6155V145H20.0105L13.4255 136.915H14.2205V145H12.2855ZM27.849 145.105C27.029 145.105 26.299 144.93 25.659 144.58C25.019 144.22 24.514 143.73 24.144 143.11C23.774 142.49 23.589 141.785 23.589 140.995C23.589 140.195 23.774 139.49 24.144 138.88C24.514 138.26 25.019 137.775 25.659 137.425C26.299 137.075 27.029 136.9 27.849 136.9C28.679 136.9 29.414 137.075 30.054 137.425C30.704 137.775 31.209 138.255 31.569 138.865C31.939 139.475 32.124 140.185 32.124 140.995C32.124 141.785 31.939 142.49 31.569 143.11C31.209 143.73 30.704 144.22 30.054 144.58C29.414 144.93 28.679 145.105 27.849 145.105ZM27.849 143.5C28.309 143.5 28.719 143.4 29.079 143.2C29.439 143 29.719 142.71 29.919 142.33C30.129 141.95 30.234 141.505 30.234 140.995C30.234 140.475 30.129 140.03 29.919 139.66C29.719 139.28 29.439 138.99 29.079 138.79C28.719 138.59 28.314 138.49 27.864 138.49C27.404 138.49 26.994 138.59 26.634 138.79C26.284 138.99 26.004 139.28 25.794 139.66C25.584 140.03 25.479 140.475 25.479 140.995C25.479 141.505 25.584 141.95 25.794 142.33C26.004 142.71 26.284 143 26.634 143.2C26.994 143.4 27.399 143.5 27.849 143.5ZM41.6625 145.105C40.8425 145.105 40.1125 144.93 39.4725 144.58C38.8325 144.22 38.3275 143.73 37.9575 143.11C37.5875 142.49 37.4025 141.785 37.4025 140.995C37.4025 140.195 37.5875 139.49 37.9575 138.88C38.3275 138.26 38.8325 137.775 39.4725 137.425C40.1125 137.075 40.8425 136.9 41.6625 136.9C42.4925 136.9 43.2275 137.075 43.8675 137.425C44.5175 137.775 45.0225 138.255 45.3825 138.865C45.7525 139.475 45.9375 140.185 45.9375 140.995C45.9375 141.785 45.7525 142.49 45.3825 143.11C45.0225 143.73 44.5175 144.22 43.8675 144.58C43.2275 144.93 42.4925 145.105 41.6625 145.105ZM41.6625 143.5C42.1225 143.5 42.5325 143.4 42.8925 143.2C43.2525 143 43.5325 142.71 43.7325 142.33C43.9425 141.95 44.0475 141.505 44.0475 140.995C44.0475 140.475 43.9425 140.03 43.7325 139.66C43.5325 139.28 43.2525 138.99 42.8925 138.79C42.5325 138.59 42.1275 138.49 41.6775 138.49C41.2175 138.49 40.8075 138.59 40.4475 138.79C40.0975 138.99 39.8175 139.28 39.6075 139.66C39.3975 140.03 39.2925 140.475 39.2925 140.995C39.2925 141.505 39.3975 141.95 39.6075 142.33C39.8175 142.71 40.0975 143 40.4475 143.2C40.8075 143.4 41.2125 143.5 41.6625 143.5ZM52.1705 145.105C51.5205 145.105 50.9255 144.955 50.3855 144.655C49.8555 144.355 49.4305 143.905 49.1105 143.305C48.8005 142.695 48.6455 141.925 48.6455 140.995C48.6455 140.055 48.7955 139.285 49.0955 138.685C49.4055 138.085 49.8255 137.64 50.3555 137.35C50.8855 137.05 51.4905 136.9 52.1705 136.9C52.9605 136.9 53.6555 137.07 54.2555 137.41C54.8655 137.75 55.3455 138.225 55.6955 138.835C56.0555 139.445 56.2355 140.165 56.2355 140.995C56.2355 141.825 56.0555 142.55 55.6955 143.17C55.3455 143.78 54.8655 144.255 54.2555 144.595C53.6555 144.935 52.9605 145.105 52.1705 145.105ZM47.7305 147.91V136.99H49.5155V138.88L49.4555 141.01L49.6055 143.14V147.91H47.7305ZM51.9605 143.5C52.4105 143.5 52.8105 143.4 53.1605 143.2C53.5205 143 53.8055 142.71 54.0155 142.33C54.2255 141.95 54.3305 141.505 54.3305 140.995C54.3305 140.475 54.2255 140.03 54.0155 139.66C53.8055 139.28 53.5205 138.99 53.1605 138.79C52.8105 138.59 52.4105 138.49 51.9605 138.49C51.5105 138.49 51.1055 138.59 50.7455 138.79C50.3855 138.99 50.1005 139.28 49.8905 139.66C49.6805 140.03 49.5755 140.475 49.5755 140.995C49.5755 141.505 49.6805 141.95 49.8905 142.33C50.1005 142.71 50.3855 143 50.7455 143.2C51.1055 143.4 51.5105 143.5 51.9605 143.5ZM61.7787 145.105C60.8887 145.105 60.1087 144.93 59.4387 144.58C58.7787 144.22 58.2637 143.73 57.8937 143.11C57.5337 142.49 57.3537 141.785 57.3537 140.995C57.3537 140.195 57.5287 139.49 57.8787 138.88C58.2387 138.26 58.7287 137.775 59.3487 137.425C59.9787 137.075 60.6937 136.9 61.4937 136.9C62.2737 136.9 62.9687 137.07 63.5787 137.41C64.1887 137.75 64.6687 138.23 65.0187 138.85C65.3687 139.47 65.5437 140.2 65.5437 141.04C65.5437 141.12 65.5387 141.21 65.5287 141.31C65.5287 141.41 65.5237 141.505 65.5137 141.595H58.8387V140.35H64.5237L63.7887 140.74C63.7987 140.28 63.7037 139.875 63.5037 139.525C63.3037 139.175 63.0287 138.9 62.6787 138.7C62.3387 138.5 61.9437 138.4 61.4937 138.4C61.0337 138.4 60.6287 138.5 60.2787 138.7C59.9387 138.9 59.6687 139.18 59.4687 139.54C59.2787 139.89 59.1837 140.305 59.1837 140.785V141.085C59.1837 141.565 59.2937 141.99 59.5137 142.36C59.7337 142.73 60.0437 143.015 60.4437 143.215C60.8437 143.415 61.3037 143.515 61.8237 143.515C62.2737 143.515 62.6787 143.445 63.0387 143.305C63.3987 143.165 63.7187 142.945 63.9987 142.645L65.0037 143.8C64.6437 144.22 64.1887 144.545 63.6387 144.775C63.0987 144.995 62.4787 145.105 61.7787 145.105ZM71.8897 136.9C72.5297 136.9 73.0997 137.025 73.5997 137.275C74.1097 137.525 74.5097 137.91 74.7997 138.43C75.0897 138.94 75.2347 139.6 75.2347 140.41V145H73.3597V140.65C73.3597 139.94 73.1897 139.41 72.8497 139.06C72.5197 138.71 72.0547 138.535 71.4547 138.535C71.0147 138.535 70.6247 138.625 70.2847 138.805C69.9447 138.985 69.6797 139.255 69.4897 139.615C69.3097 139.965 69.2197 140.41 69.2197 140.95V145H67.3447V136.99H69.1297V139.15L68.8147 138.49C69.0947 137.98 69.4997 137.59 70.0297 137.32C70.5697 137.04 71.1897 136.9 71.8897 136.9ZM80.9338 148.015C80.5838 148.015 80.2538 147.975 79.9438 147.895C79.6238 147.825 79.3538 147.71 79.1338 147.55L79.6738 146.155C79.9638 146.365 80.3288 146.47 80.7688 146.47C81.1088 146.47 81.3738 146.36 81.5638 146.14C81.7538 145.93 81.8488 145.615 81.8488 145.195V136.99H83.7238V145.15C83.7238 146.03 83.4788 146.725 82.9888 147.235C82.5088 147.755 81.8238 148.015 80.9338 148.015ZM82.7788 135.67C82.4288 135.67 82.1388 135.56 81.9088 135.34C81.6888 135.12 81.5788 134.855 81.5788 134.545C81.5788 134.225 81.6888 133.96 81.9088 133.75C82.1388 133.53 82.4288 133.42 82.7788 133.42C83.1288 133.42 83.4138 133.525 83.6338 133.735C83.8638 133.935 83.9788 134.19 83.9788 134.5C83.9788 134.83 83.8688 135.11 83.6488 135.34C83.4288 135.56 83.1388 135.67 82.7788 135.67ZM89.7826 145.105C88.9626 145.105 88.2326 144.93 87.5926 144.58C86.9526 144.22 86.4476 143.73 86.0776 143.11C85.7076 142.49 85.5226 141.785 85.5226 140.995C85.5226 140.195 85.7076 139.49 86.0776 138.88C86.4476 138.26 86.9526 137.775 87.5926 137.425C88.2326 137.075 88.9626 136.9 89.7826 136.9C90.6126 136.9 91.3476 137.075 91.9876 137.425C92.6376 137.775 93.1426 138.255 93.5026 138.865C93.8726 139.475 94.0576 140.185 94.0576 140.995C94.0576 141.785 93.8726 142.49 93.5026 143.11C93.1426 143.73 92.6376 144.22 91.9876 144.58C91.3476 144.93 90.6126 145.105 89.7826 145.105ZM89.7826 143.5C90.2426 143.5 90.6526 143.4 91.0126 143.2C91.3726 143 91.6526 142.71 91.8526 142.33C92.0626 141.95 92.1676 141.505 92.1676 140.995C92.1676 140.475 92.0626 140.03 91.8526 139.66C91.6526 139.28 91.3726 138.99 91.0126 138.79C90.6526 138.59 90.2476 138.49 89.7976 138.49C89.3376 138.49 88.9276 138.59 88.5676 138.79C88.2176 138.99 87.9376 139.28 87.7276 139.66C87.5176 140.03 87.4126 140.475 87.4126 140.995C87.4126 141.505 87.5176 141.95 87.7276 142.33C87.9376 142.71 88.2176 143 88.5676 143.2C88.9276 143.4 89.3326 143.5 89.7826 143.5ZM100.291 145.105C99.6106 145.105 99.0056 144.955 98.4756 144.655C97.9456 144.355 97.5256 143.905 97.2156 143.305C96.9156 142.695 96.7656 141.925 96.7656 140.995C96.7656 140.055 96.9206 139.285 97.2306 138.685C97.5506 138.085 97.9756 137.64 98.5056 137.35C99.0456 137.05 99.6406 136.9 100.291 136.9C101.081 136.9 101.776 137.07 102.376 137.41C102.986 137.75 103.466 138.225 103.816 138.835C104.176 139.445 104.356 140.165 104.356 140.995C104.356 141.825 104.176 142.545 103.816 143.155C103.466 143.765 102.986 144.245 102.376 144.595C101.776 144.935 101.081 145.105 100.291 145.105ZM95.8506 145V133.87H97.7256V138.85L97.5756 140.98L97.6356 143.11V145H95.8506ZM100.081 143.5C100.531 143.5 100.931 143.4 101.281 143.2C101.641 143 101.926 142.71 102.136 142.33C102.346 141.95 102.451 141.505 102.451 140.995C102.451 140.475 102.346 140.03 102.136 139.66C101.926 139.28 101.641 138.99 101.281 138.79C100.931 138.59 100.531 138.49 100.081 138.49C99.6306 138.49 99.2256 138.59 98.8656 138.79C98.5056 138.99 98.2206 139.28 98.0106 139.66C97.8006 140.03 97.6956 140.475 97.6956 140.995C97.6956 141.505 97.8006 141.95 98.0106 142.33C98.2206 142.71 98.5056 143 98.8656 143.2C99.2256 143.4 99.6306 143.5 100.081 143.5ZM106.602 145.105C106.262 145.105 105.972 144.99 105.732 144.76C105.492 144.52 105.372 144.22 105.372 143.86C105.372 143.48 105.492 143.18 105.732 142.96C105.972 142.73 106.262 142.615 106.602 142.615C106.942 142.615 107.232 142.73 107.472 142.96C107.712 143.18 107.832 143.48 107.832 143.86C107.832 144.22 107.712 144.52 107.472 144.76C107.232 144.99 106.942 145.105 106.602 145.105ZM118.91 145.15C118.09 145.15 117.335 145.015 116.645 144.745C115.955 144.475 115.355 144.1 114.845 143.62C114.335 143.13 113.94 142.56 113.66 141.91C113.38 141.25 113.24 140.53 113.24 139.75C113.24 138.97 113.38 138.255 113.66 137.605C113.94 136.945 114.335 136.375 114.845 135.895C115.355 135.405 115.955 135.025 116.645 134.755C117.335 134.485 118.085 134.35 118.895 134.35C119.715 134.35 120.465 134.485 121.145 134.755C121.835 135.025 122.435 135.405 122.945 135.895C123.455 136.375 123.85 136.945 124.13 137.605C124.41 138.255 124.55 138.97 124.55 139.75C124.55 140.53 124.41 141.25 124.13 141.91C123.85 142.57 123.455 143.14 122.945 143.62C122.435 144.1 121.835 144.475 121.145 144.745C120.465 145.015 119.72 145.15 118.91 145.15ZM118.895 143.44C119.425 143.44 119.915 143.35 120.365 143.17C120.815 142.99 121.205 142.735 121.535 142.405C121.865 142.065 122.12 141.675 122.3 141.235C122.49 140.785 122.585 140.29 122.585 139.75C122.585 139.21 122.49 138.72 122.3 138.28C122.12 137.83 121.865 137.44 121.535 137.11C121.205 136.77 120.815 136.51 120.365 136.33C119.915 136.15 119.425 136.06 118.895 136.06C118.365 136.06 117.875 136.15 117.425 136.33C116.985 136.51 116.595 136.77 116.255 137.11C115.925 137.44 115.665 137.83 115.475 138.28C115.295 138.72 115.205 139.21 115.205 139.75C115.205 140.28 115.295 140.77 115.475 141.22C115.665 141.67 115.925 142.065 116.255 142.405C116.585 142.735 116.975 142.99 117.425 143.17C117.875 143.35 118.365 143.44 118.895 143.44ZM130.877 145.105C130.227 145.105 129.632 144.955 129.092 144.655C128.562 144.355 128.137 143.905 127.817 143.305C127.507 142.695 127.352 141.925 127.352 140.995C127.352 140.055 127.502 139.285 127.802 138.685C128.112 138.085 128.532 137.64 129.062 137.35C129.592 137.05 130.197 136.9 130.877 136.9C131.667 136.9 132.362 137.07 132.962 137.41C133.572 137.75 134.052 138.225 134.402 138.835C134.762 139.445 134.942 140.165 134.942 140.995C134.942 141.825 134.762 142.55 134.402 143.17C134.052 143.78 133.572 144.255 132.962 144.595C132.362 144.935 131.667 145.105 130.877 145.105ZM126.437 147.91V136.99H128.222V138.88L128.162 141.01L128.312 143.14V147.91H126.437ZM130.667 143.5C131.117 143.5 131.517 143.4 131.867 143.2C132.227 143 132.512 142.71 132.722 142.33C132.932 141.95 133.037 141.505 133.037 140.995C133.037 140.475 132.932 140.03 132.722 139.66C132.512 139.28 132.227 138.99 131.867 138.79C131.517 138.59 131.117 138.49 130.667 138.49C130.217 138.49 129.812 138.59 129.452 138.79C129.092 138.99 128.807 139.28 128.597 139.66C128.387 140.03 128.282 140.475 128.282 140.995C128.282 141.505 128.387 141.95 128.597 142.33C128.807 142.71 129.092 143 129.452 143.2C129.812 143.4 130.217 143.5 130.667 143.5ZM140.485 145.105C139.595 145.105 138.815 144.93 138.145 144.58C137.485 144.22 136.97 143.73 136.6 143.11C136.24 142.49 136.06 141.785 136.06 140.995C136.06 140.195 136.235 139.49 136.585 138.88C136.945 138.26 137.435 137.775 138.055 137.425C138.685 137.075 139.4 136.9 140.2 136.9C140.98 136.9 141.675 137.07 142.285 137.41C142.895 137.75 143.375 138.23 143.725 138.85C144.075 139.47 144.25 140.2 144.25 141.04C144.25 141.12 144.245 141.21 144.235 141.31C144.235 141.41 144.23 141.505 144.22 141.595H137.545V140.35H143.23L142.495 140.74C142.505 140.28 142.41 139.875 142.21 139.525C142.01 139.175 141.735 138.9 141.385 138.7C141.045 138.5 140.65 138.4 140.2 138.4C139.74 138.4 139.335 138.5 138.985 138.7C138.645 138.9 138.375 139.18 138.175 139.54C137.985 139.89 137.89 140.305 137.89 140.785V141.085C137.89 141.565 138 141.99 138.22 142.36C138.44 142.73 138.75 143.015 139.15 143.215C139.55 143.415 140.01 143.515 140.53 143.515C140.98 143.515 141.385 143.445 141.745 143.305C142.105 143.165 142.425 142.945 142.705 142.645L143.71 143.8C143.35 144.22 142.895 144.545 142.345 144.775C141.805 144.995 141.185 145.105 140.485 145.105ZM150.596 136.9C151.236 136.9 151.806 137.025 152.306 137.275C152.816 137.525 153.216 137.91 153.506 138.43C153.796 138.94 153.941 139.6 153.941 140.41V145H152.066V140.65C152.066 139.94 151.896 139.41 151.556 139.06C151.226 138.71 150.761 138.535 150.161 138.535C149.721 138.535 149.331 138.625 148.991 138.805C148.651 138.985 148.386 139.255 148.196 139.615C148.016 139.965 147.926 140.41 147.926 140.95V145H146.051V136.99H147.836V139.15L147.521 138.49C147.801 137.98 148.206 137.59 148.736 137.32C149.276 137.04 149.896 136.9 150.596 136.9ZM165.4 145V143.38L165.295 143.035V140.2C165.295 139.65 165.13 139.225 164.8 138.925C164.47 138.615 163.97 138.46 163.3 138.46C162.85 138.46 162.405 138.53 161.965 138.67C161.535 138.81 161.17 139.005 160.87 139.255L160.135 137.89C160.565 137.56 161.075 137.315 161.665 137.155C162.265 136.985 162.885 136.9 163.525 136.9C164.685 136.9 165.58 137.18 166.21 137.74C166.85 138.29 167.17 139.145 167.17 140.305V145H165.4ZM162.88 145.105C162.28 145.105 161.755 145.005 161.305 144.805C160.855 144.595 160.505 144.31 160.255 143.95C160.015 143.58 159.895 143.165 159.895 142.705C159.895 142.255 160 141.85 160.21 141.49C160.43 141.13 160.785 140.845 161.275 140.635C161.765 140.425 162.415 140.32 163.225 140.32H165.55V141.565H163.36C162.72 141.565 162.29 141.67 162.07 141.88C161.85 142.08 161.74 142.33 161.74 142.63C161.74 142.97 161.875 143.24 162.145 143.44C162.415 143.64 162.79 143.74 163.27 143.74C163.73 143.74 164.14 143.635 164.5 143.425C164.87 143.215 165.135 142.905 165.295 142.495L165.61 143.62C165.43 144.09 165.105 144.455 164.635 144.715C164.175 144.975 163.59 145.105 162.88 145.105ZM172.897 148.015C172.547 148.015 172.217 147.975 171.907 147.895C171.587 147.825 171.317 147.71 171.097 147.55L171.637 146.155C171.927 146.365 172.292 146.47 172.732 146.47C173.072 146.47 173.337 146.36 173.527 146.14C173.717 145.93 173.812 145.615 173.812 145.195V136.99H175.687V145.15C175.687 146.03 175.442 146.725 174.952 147.235C174.472 147.755 173.787 148.015 172.897 148.015ZM174.742 135.67C174.392 135.67 174.102 135.56 173.872 135.34C173.652 135.12 173.542 134.855 173.542 134.545C173.542 134.225 173.652 133.96 173.872 133.75C174.102 133.53 174.392 133.42 174.742 133.42C175.092 133.42 175.377 133.525 175.597 133.735C175.827 133.935 175.942 134.19 175.942 134.5C175.942 134.83 175.832 135.11 175.612 135.34C175.392 135.56 175.102 135.67 174.742 135.67ZM181.746 145.105C180.926 145.105 180.196 144.93 179.556 144.58C178.916 144.22 178.411 143.73 178.041 143.11C177.671 142.49 177.486 141.785 177.486 140.995C177.486 140.195 177.671 139.49 178.041 138.88C178.411 138.26 178.916 137.775 179.556 137.425C180.196 137.075 180.926 136.9 181.746 136.9C182.576 136.9 183.311 137.075 183.951 137.425C184.601 137.775 185.106 138.255 185.466 138.865C185.836 139.475 186.021 140.185 186.021 140.995C186.021 141.785 185.836 142.49 185.466 143.11C185.106 143.73 184.601 144.22 183.951 144.58C183.311 144.93 182.576 145.105 181.746 145.105ZM181.746 143.5C182.206 143.5 182.616 143.4 182.976 143.2C183.336 143 183.616 142.71 183.816 142.33C184.026 141.95 184.131 141.505 184.131 140.995C184.131 140.475 184.026 140.03 183.816 139.66C183.616 139.28 183.336 138.99 182.976 138.79C182.616 138.59 182.211 138.49 181.761 138.49C181.301 138.49 180.891 138.59 180.531 138.79C180.181 138.99 179.901 139.28 179.691 139.66C179.481 140.03 179.376 140.475 179.376 140.995C179.376 141.505 179.481 141.95 179.691 142.33C179.901 142.71 180.181 143 180.531 143.2C180.891 143.4 181.296 143.5 181.746 143.5ZM192.253 145.105C191.573 145.105 190.968 144.955 190.438 144.655C189.908 144.355 189.488 143.905 189.178 143.305C188.878 142.695 188.728 141.925 188.728 140.995C188.728 140.055 188.883 139.285 189.193 138.685C189.513 138.085 189.938 137.64 190.468 137.35C191.008 137.05 191.603 136.9 192.253 136.9C193.043 136.9 193.738 137.07 194.338 137.41C194.948 137.75 195.428 138.225 195.778 138.835C196.138 139.445 196.318 140.165 196.318 140.995C196.318 141.825 196.138 142.545 195.778 143.155C195.428 143.765 194.948 144.245 194.338 144.595C193.738 144.935 193.043 145.105 192.253 145.105ZM187.813 145V133.87H189.688V138.85L189.538 140.98L189.598 143.11V145H187.813ZM192.043 143.5C192.493 143.5 192.893 143.4 193.243 143.2C193.603 143 193.888 142.71 194.098 142.33C194.308 141.95 194.413 141.505 194.413 140.995C194.413 140.475 194.308 140.03 194.098 139.66C193.888 139.28 193.603 138.99 193.243 138.79C192.893 138.59 192.493 138.49 192.043 138.49C191.593 138.49 191.188 138.59 190.828 138.79C190.468 138.99 190.183 139.28 189.973 139.66C189.763 140.03 189.658 140.475 189.658 140.995C189.658 141.505 189.763 141.95 189.973 142.33C190.183 142.71 190.468 143 190.828 143.2C191.188 143.4 191.593 143.5 192.043 143.5ZM205.257 145.105C204.377 145.105 203.697 144.88 203.217 144.43C202.737 143.97 202.497 143.295 202.497 142.405V135.22H204.372V142.36C204.372 142.74 204.467 143.035 204.657 143.245C204.857 143.455 205.132 143.56 205.482 143.56C205.902 143.56 206.252 143.45 206.532 143.23L207.057 144.565C206.837 144.745 206.567 144.88 206.247 144.97C205.927 145.06 205.597 145.105 205.257 145.105ZM201.177 138.55V137.05H206.517V138.55H201.177ZM211.936 145.105C211.116 145.105 210.386 144.93 209.746 144.58C209.106 144.22 208.601 143.73 208.231 143.11C207.861 142.49 207.676 141.785 207.676 140.995C207.676 140.195 207.861 139.49 208.231 138.88C208.601 138.26 209.106 137.775 209.746 137.425C210.386 137.075 211.116 136.9 211.936 136.9C212.766 136.9 213.501 137.075 214.141 137.425C214.791 137.775 215.296 138.255 215.656 138.865C216.026 139.475 216.211 140.185 216.211 140.995C216.211 141.785 216.026 142.49 215.656 143.11C215.296 143.73 214.791 144.22 214.141 144.58C213.501 144.93 212.766 145.105 211.936 145.105ZM211.936 143.5C212.396 143.5 212.806 143.4 213.166 143.2C213.526 143 213.806 142.71 214.006 142.33C214.216 141.95 214.321 141.505 214.321 140.995C214.321 140.475 214.216 140.03 214.006 139.66C213.806 139.28 213.526 138.99 213.166 138.79C212.806 138.59 212.401 138.49 211.951 138.49C211.491 138.49 211.081 138.59 210.721 138.79C210.371 138.99 210.091 139.28 209.881 139.66C209.671 140.03 209.566 140.475 209.566 140.995C209.566 141.505 209.671 141.95 209.881 142.33C210.091 142.71 210.371 143 210.721 143.2C211.081 143.4 211.486 143.5 211.936 143.5ZM226.694 136.9C227.334 136.9 227.904 137.025 228.404 137.275C228.914 137.525 229.314 137.91 229.604 138.43C229.894 138.94 230.039 139.6 230.039 140.41V145H228.164V140.65C228.164 139.94 227.994 139.41 227.654 139.06C227.324 138.71 226.859 138.535 226.259 138.535C225.819 138.535 225.429 138.625 225.089 138.805C224.749 138.985 224.484 139.255 224.294 139.615C224.114 139.965 224.024 140.41 224.024 140.95V145H222.149V133.87H224.024V139.15L223.619 138.49C223.899 137.98 224.304 137.59 224.834 137.32C225.374 137.04 225.994 136.9 226.694 136.9ZM232.418 145V136.99H234.293V145H232.418ZM233.363 135.67C233.013 135.67 232.723 135.56 232.493 135.34C232.273 135.12 232.163 134.855 232.163 134.545C232.163 134.225 232.273 133.96 232.493 133.75C232.723 133.53 233.013 133.42 233.363 133.42C233.713 133.42 233.998 133.525 234.218 133.735C234.448 133.935 234.563 134.19 234.563 134.5C234.563 134.83 234.453 135.11 234.233 135.34C234.013 135.56 233.723 135.67 233.363 135.67ZM236.754 145V136.99H238.539V139.195L238.329 138.55C238.569 138.01 238.944 137.6 239.454 137.32C239.974 137.04 240.619 136.9 241.389 136.9V138.685C241.309 138.665 241.234 138.655 241.164 138.655C241.094 138.645 241.024 138.64 240.954 138.64C240.244 138.64 239.679 138.85 239.259 139.27C238.839 139.68 238.629 140.295 238.629 141.115V145H236.754ZM246.671 145.105C245.781 145.105 245.001 144.93 244.331 144.58C243.671 144.22 243.156 143.73 242.786 143.11C242.426 142.49 242.246 141.785 242.246 140.995C242.246 140.195 242.421 139.49 242.771 138.88C243.131 138.26 243.621 137.775 244.241 137.425C244.871 137.075 245.586 136.9 246.386 136.9C247.166 136.9 247.861 137.07 248.471 137.41C249.081 137.75 249.561 138.23 249.911 138.85C250.261 139.47 250.436 140.2 250.436 141.04C250.436 141.12 250.431 141.21 250.421 141.31C250.421 141.41 250.416 141.505 250.406 141.595H243.731V140.35H249.416L248.681 140.74C248.691 140.28 248.596 139.875 248.396 139.525C248.196 139.175 247.921 138.9 247.571 138.7C247.231 138.5 246.836 138.4 246.386 138.4C245.926 138.4 245.521 138.5 245.171 138.7C244.831 138.9 244.561 139.18 244.361 139.54C244.171 139.89 244.076 140.305 244.076 140.785V141.085C244.076 141.565 244.186 141.99 244.406 142.36C244.626 142.73 244.936 143.015 245.336 143.215C245.736 143.415 246.196 143.515 246.716 143.515C247.166 143.515 247.571 143.445 247.931 143.305C248.291 143.165 248.611 142.945 248.891 142.645L249.896 143.8C249.536 144.22 249.081 144.545 248.531 144.775C247.991 144.995 247.371 145.105 246.671 145.105ZM259.398 145.105C258.518 145.105 257.838 144.88 257.358 144.43C256.878 143.97 256.638 143.295 256.638 142.405V135.22H258.513V142.36C258.513 142.74 258.608 143.035 258.798 143.245C258.998 143.455 259.273 143.56 259.623 143.56C260.043 143.56 260.393 143.45 260.673 143.23L261.198 144.565C260.978 144.745 260.708 144.88 260.388 144.97C260.068 145.06 259.738 145.105 259.398 145.105ZM255.318 138.55V137.05H260.658V138.55H255.318ZM267.285 136.9C267.925 136.9 268.495 137.025 268.995 137.275C269.505 137.525 269.905 137.91 270.195 138.43C270.485 138.94 270.63 139.6 270.63 140.41V145H268.755V140.65C268.755 139.94 268.585 139.41 268.245 139.06C267.915 138.71 267.45 138.535 266.85 138.535C266.41 138.535 266.02 138.625 265.68 138.805C265.34 138.985 265.075 139.255 264.885 139.615C264.705 139.965 264.615 140.41 264.615 140.95V145H262.74V133.87H264.615V139.15L264.21 138.49C264.49 137.98 264.895 137.59 265.425 137.32C265.965 137.04 266.585 136.9 267.285 136.9ZM276.788 145.105C275.898 145.105 275.118 144.93 274.448 144.58C273.788 144.22 273.273 143.73 272.903 143.11C272.543 142.49 272.363 141.785 272.363 140.995C272.363 140.195 272.538 139.49 272.888 138.88C273.248 138.26 273.738 137.775 274.358 137.425C274.988 137.075 275.703 136.9 276.503 136.9C277.283 136.9 277.978 137.07 278.588 137.41C279.198 137.75 279.678 138.23 280.028 138.85C280.378 139.47 280.553 140.2 280.553 141.04C280.553 141.12 280.548 141.21 280.538 141.31C280.538 141.41 280.533 141.505 280.523 141.595H273.848V140.35H279.533L278.798 140.74C278.808 140.28 278.713 139.875 278.513 139.525C278.313 139.175 278.038 138.9 277.688 138.7C277.348 138.5 276.953 138.4 276.503 138.4C276.043 138.4 275.638 138.5 275.288 138.7C274.948 138.9 274.678 139.18 274.478 139.54C274.288 139.89 274.193 140.305 274.193 140.785V141.085C274.193 141.565 274.303 141.99 274.523 142.36C274.743 142.73 275.053 143.015 275.453 143.215C275.853 143.415 276.313 143.515 276.833 143.515C277.283 143.515 277.688 143.445 278.048 143.305C278.408 143.165 278.728 142.945 279.008 142.645L280.013 143.8C279.653 144.22 279.198 144.545 278.648 144.775C278.108 144.995 277.488 145.105 276.788 145.105ZM69.7926 163.105C69.1126 163.105 68.5076 162.955 67.9776 162.655C67.4476 162.355 67.0276 161.905 66.7176 161.305C66.4176 160.695 66.2676 159.925 66.2676 158.995C66.2676 158.055 66.4226 157.285 66.7326 156.685C67.0526 156.085 67.4776 155.64 68.0076 155.35C68.5476 155.05 69.1426 154.9 69.7926 154.9C70.5826 154.9 71.2776 155.07 71.8776 155.41C72.4876 155.75 72.9676 156.225 73.3176 156.835C73.6776 157.445 73.8576 158.165 73.8576 158.995C73.8576 159.825 73.6776 160.545 73.3176 161.155C72.9676 161.765 72.4876 162.245 71.8776 162.595C71.2776 162.935 70.5826 163.105 69.7926 163.105ZM65.3526 163V151.87H67.2276V156.85L67.0776 158.98L67.1376 161.11V163H65.3526ZM69.5826 161.5C70.0326 161.5 70.4326 161.4 70.7826 161.2C71.1426 161 71.4276 160.71 71.6376 160.33C71.8476 159.95 71.9526 159.505 71.9526 158.995C71.9526 158.475 71.8476 158.03 71.6376 157.66C71.4276 157.28 71.1426 156.99 70.7826 156.79C70.4326 156.59 70.0326 156.49 69.5826 156.49C69.1326 156.49 68.7276 156.59 68.3676 156.79C68.0076 156.99 67.7226 157.28 67.5126 157.66C67.3026 158.03 67.1976 158.475 67.1976 158.995C67.1976 159.505 67.3026 159.95 67.5126 160.33C67.7226 160.71 68.0076 161 68.3676 161.2C68.7276 161.4 69.1326 161.5 69.5826 161.5ZM79.4008 163.105C78.5108 163.105 77.7308 162.93 77.0608 162.58C76.4008 162.22 75.8858 161.73 75.5158 161.11C75.1558 160.49 74.9758 159.785 74.9758 158.995C74.9758 158.195 75.1508 157.49 75.5008 156.88C75.8608 156.26 76.3508 155.775 76.9708 155.425C77.6008 155.075 78.3158 154.9 79.1158 154.9C79.8958 154.9 80.5908 155.07 81.2008 155.41C81.8108 155.75 82.2908 156.23 82.6408 156.85C82.9908 157.47 83.1658 158.2 83.1658 159.04C83.1658 159.12 83.1608 159.21 83.1508 159.31C83.1508 159.41 83.1458 159.505 83.1358 159.595H76.4608V158.35H82.1458L81.4108 158.74C81.4208 158.28 81.3258 157.875 81.1258 157.525C80.9258 157.175 80.6508 156.9 80.3008 156.7C79.9608 156.5 79.5658 156.4 79.1158 156.4C78.6558 156.4 78.2508 156.5 77.9008 156.7C77.5608 156.9 77.2908 157.18 77.0908 157.54C76.9008 157.89 76.8058 158.305 76.8058 158.785V159.085C76.8058 159.565 76.9158 159.99 77.1358 160.36C77.3558 160.73 77.6658 161.015 78.0658 161.215C78.4658 161.415 78.9258 161.515 79.4458 161.515C79.8958 161.515 80.3008 161.445 80.6608 161.305C81.0208 161.165 81.3408 160.945 81.6208 160.645L82.6258 161.8C82.2658 162.22 81.8108 162.545 81.2608 162.775C80.7208 162.995 80.1008 163.105 79.4008 163.105ZM87.4418 163.105C86.7718 163.105 86.1268 163.02 85.5068 162.85C84.8968 162.67 84.4118 162.455 84.0518 162.205L84.7718 160.78C85.1318 161.01 85.5618 161.2 86.0618 161.35C86.5618 161.5 87.0618 161.575 87.5618 161.575C88.1518 161.575 88.5768 161.495 88.8368 161.335C89.1068 161.175 89.2418 160.96 89.2418 160.69C89.2418 160.47 89.1518 160.305 88.9718 160.195C88.7918 160.075 88.5568 159.985 88.2668 159.925C87.9768 159.865 87.6518 159.81 87.2918 159.76C86.9418 159.71 86.5868 159.645 86.2268 159.565C85.8768 159.475 85.5568 159.35 85.2668 159.19C84.9768 159.02 84.7418 158.795 84.5618 158.515C84.3818 158.235 84.2918 157.865 84.2918 157.405C84.2918 156.895 84.4368 156.455 84.7268 156.085C85.0168 155.705 85.4218 155.415 85.9418 155.215C86.4718 155.005 87.0968 154.9 87.8168 154.9C88.3568 154.9 88.9018 154.96 89.4518 155.08C90.0018 155.2 90.4568 155.37 90.8168 155.59L90.0968 157.015C89.7168 156.785 89.3318 156.63 88.9418 156.55C88.5618 156.46 88.1818 156.415 87.8018 156.415C87.2318 156.415 86.8068 156.5 86.5268 156.67C86.2568 156.84 86.1218 157.055 86.1218 157.315C86.1218 157.555 86.2118 157.735 86.3918 157.855C86.5718 157.975 86.8068 158.07 87.0968 158.14C87.3868 158.21 87.7068 158.27 88.0568 158.32C88.4168 158.36 88.7718 158.425 89.1218 158.515C89.4718 158.605 89.7918 158.73 90.0818 158.89C90.3818 159.04 90.6218 159.255 90.8018 159.535C90.9818 159.815 91.0718 160.18 91.0718 160.63C91.0718 161.13 90.9218 161.565 90.6218 161.935C90.3318 162.305 89.9168 162.595 89.3768 162.805C88.8368 163.005 88.1918 163.105 87.4418 163.105ZM95.7015 163.105C94.8215 163.105 94.1415 162.88 93.6615 162.43C93.1815 161.97 92.9415 161.295 92.9415 160.405V153.22H94.8165V160.36C94.8165 160.74 94.9115 161.035 95.1015 161.245C95.3015 161.455 95.5765 161.56 95.9265 161.56C96.3465 161.56 96.6965 161.45 96.9765 161.23L97.5015 162.565C97.2815 162.745 97.0115 162.88 96.6915 162.97C96.3715 163.06 96.0415 163.105 95.7015 163.105ZM91.6215 156.55V155.05H96.9615V156.55H91.6215ZM106.204 163.105C105.324 163.105 104.644 162.88 104.164 162.43C103.684 161.97 103.444 161.295 103.444 160.405V153.22H105.319V160.36C105.319 160.74 105.414 161.035 105.604 161.245C105.804 161.455 106.079 161.56 106.429 161.56C106.849 161.56 107.199 161.45 107.479 161.23L108.004 162.565C107.784 162.745 107.514 162.88 107.194 162.97C106.874 163.06 106.544 163.105 106.204 163.105ZM102.124 156.55V155.05H107.464V156.55H102.124ZM114.482 163V161.38L114.377 161.035V158.2C114.377 157.65 114.212 157.225 113.882 156.925C113.552 156.615 113.052 156.46 112.382 156.46C111.932 156.46 111.487 156.53 111.047 156.67C110.617 156.81 110.252 157.005 109.952 157.255L109.217 155.89C109.647 155.56 110.157 155.315 110.747 155.155C111.347 154.985 111.967 154.9 112.607 154.9C113.767 154.9 114.662 155.18 115.292 155.74C115.932 156.29 116.252 157.145 116.252 158.305V163H114.482ZM111.962 163.105C111.362 163.105 110.837 163.005 110.387 162.805C109.937 162.595 109.587 162.31 109.337 161.95C109.097 161.58 108.977 161.165 108.977 160.705C108.977 160.255 109.082 159.85 109.292 159.49C109.512 159.13 109.867 158.845 110.357 158.635C110.847 158.425 111.497 158.32 112.307 158.32H114.632V159.565H112.442C111.802 159.565 111.372 159.67 111.152 159.88C110.932 160.08 110.822 160.33 110.822 160.63C110.822 160.97 110.957 161.24 111.227 161.44C111.497 161.64 111.872 161.74 112.352 161.74C112.812 161.74 113.222 161.635 113.582 161.425C113.952 161.215 114.217 160.905 114.377 160.495L114.692 161.62C114.512 162.09 114.187 162.455 113.717 162.715C113.257 162.975 112.672 163.105 111.962 163.105ZM118.658 163V151.87H120.533V163H118.658ZM126.759 163.105C125.869 163.105 125.089 162.93 124.419 162.58C123.759 162.22 123.244 161.73 122.874 161.11C122.514 160.49 122.334 159.785 122.334 158.995C122.334 158.195 122.509 157.49 122.859 156.88C123.219 156.26 123.709 155.775 124.329 155.425C124.959 155.075 125.674 154.9 126.474 154.9C127.254 154.9 127.949 155.07 128.559 155.41C129.169 155.75 129.649 156.23 129.999 156.85C130.349 157.47 130.524 158.2 130.524 159.04C130.524 159.12 130.519 159.21 130.509 159.31C130.509 159.41 130.504 159.505 130.494 159.595H123.819V158.35H129.504L128.769 158.74C128.779 158.28 128.684 157.875 128.484 157.525C128.284 157.175 128.009 156.9 127.659 156.7C127.319 156.5 126.924 156.4 126.474 156.4C126.014 156.4 125.609 156.5 125.259 156.7C124.919 156.9 124.649 157.18 124.449 157.54C124.259 157.89 124.164 158.305 124.164 158.785V159.085C124.164 159.565 124.274 159.99 124.494 160.36C124.714 160.73 125.024 161.015 125.424 161.215C125.824 161.415 126.284 161.515 126.804 161.515C127.254 161.515 127.659 161.445 128.019 161.305C128.379 161.165 128.699 160.945 128.979 160.645L129.984 161.8C129.624 162.22 129.169 162.545 128.619 162.775C128.079 162.995 127.459 163.105 126.759 163.105ZM136.87 154.9C137.51 154.9 138.08 155.025 138.58 155.275C139.09 155.525 139.49 155.91 139.78 156.43C140.07 156.94 140.215 157.6 140.215 158.41V163H138.34V158.65C138.34 157.94 138.17 157.41 137.83 157.06C137.5 156.71 137.035 156.535 136.435 156.535C135.995 156.535 135.605 156.625 135.265 156.805C134.925 156.985 134.66 157.255 134.47 157.615C134.29 157.965 134.2 158.41 134.2 158.95V163H132.325V154.99H134.11V157.15L133.795 156.49C134.075 155.98 134.48 155.59 135.01 155.32C135.55 155.04 136.17 154.9 136.87 154.9ZM145.609 163.105C144.729 163.105 144.049 162.88 143.569 162.43C143.089 161.97 142.849 161.295 142.849 160.405V153.22H144.724V160.36C144.724 160.74 144.819 161.035 145.009 161.245C145.209 161.455 145.484 161.56 145.834 161.56C146.254 161.56 146.604 161.45 146.884 161.23L147.409 162.565C147.189 162.745 146.919 162.88 146.599 162.97C146.279 163.06 145.949 163.105 145.609 163.105ZM141.529 156.55V155.05H146.869V156.55H141.529ZM156.697 163.105C155.877 163.105 155.147 162.93 154.507 162.58C153.867 162.22 153.362 161.73 152.992 161.11C152.622 160.49 152.437 159.785 152.437 158.995C152.437 158.195 152.622 157.49 152.992 156.88C153.362 156.26 153.867 155.775 154.507 155.425C155.147 155.075 155.877 154.9 156.697 154.9C157.527 154.9 158.262 155.075 158.902 155.425C159.552 155.775 160.057 156.255 160.417 156.865C160.787 157.475 160.972 158.185 160.972 158.995C160.972 159.785 160.787 160.49 160.417 161.11C160.057 161.73 159.552 162.22 158.902 162.58C158.262 162.93 157.527 163.105 156.697 163.105ZM156.697 161.5C157.157 161.5 157.567 161.4 157.927 161.2C158.287 161 158.567 160.71 158.767 160.33C158.977 159.95 159.082 159.505 159.082 158.995C159.082 158.475 158.977 158.03 158.767 157.66C158.567 157.28 158.287 156.99 157.927 156.79C157.567 156.59 157.162 156.49 156.712 156.49C156.252 156.49 155.842 156.59 155.482 156.79C155.132 156.99 154.852 157.28 154.642 157.66C154.432 158.03 154.327 158.475 154.327 158.995C154.327 159.505 154.432 159.95 154.642 160.33C154.852 160.71 155.132 161 155.482 161.2C155.842 161.4 156.247 161.5 156.697 161.5ZM166.155 163.105C165.475 163.105 164.875 162.98 164.355 162.73C163.835 162.47 163.43 162.08 163.14 161.56C162.85 161.03 162.705 160.365 162.705 159.565V154.99H164.58V159.31C164.58 160.03 164.74 160.57 165.06 160.93C165.39 161.28 165.855 161.455 166.455 161.455C166.895 161.455 167.275 161.365 167.595 161.185C167.925 161.005 168.18 160.735 168.36 160.375C168.55 160.015 168.645 159.57 168.645 159.04V154.99H170.52V163H168.735V160.84L169.05 161.5C168.78 162.02 168.385 162.42 167.865 162.7C167.345 162.97 166.775 163.105 166.155 163.105ZM175.99 163.105C175.11 163.105 174.43 162.88 173.95 162.43C173.47 161.97 173.23 161.295 173.23 160.405V153.22H175.105V160.36C175.105 160.74 175.2 161.035 175.39 161.245C175.59 161.455 175.865 161.56 176.215 161.56C176.635 161.56 176.985 161.45 177.265 161.23L177.79 162.565C177.57 162.745 177.3 162.88 176.98 162.97C176.66 163.06 176.33 163.105 175.99 163.105ZM171.91 156.55V155.05H177.25V156.55H171.91ZM186.493 163.105C185.613 163.105 184.933 162.88 184.453 162.43C183.973 161.97 183.733 161.295 183.733 160.405V153.22H185.608V160.36C185.608 160.74 185.703 161.035 185.893 161.245C186.093 161.455 186.368 161.56 186.718 161.56C187.138 161.56 187.488 161.45 187.768 161.23L188.293 162.565C188.073 162.745 187.803 162.88 187.483 162.97C187.163 163.06 186.833 163.105 186.493 163.105ZM182.413 156.55V155.05H187.753V156.55H182.413ZM194.38 154.9C195.02 154.9 195.59 155.025 196.09 155.275C196.6 155.525 197 155.91 197.29 156.43C197.58 156.94 197.725 157.6 197.725 158.41V163H195.85V158.65C195.85 157.94 195.68 157.41 195.34 157.06C195.01 156.71 194.545 156.535 193.945 156.535C193.505 156.535 193.115 156.625 192.775 156.805C192.435 156.985 192.17 157.255 191.98 157.615C191.8 157.965 191.71 158.41 191.71 158.95V163H189.835V151.87H191.71V157.15L191.305 156.49C191.585 155.98 191.99 155.59 192.52 155.32C193.06 155.04 193.68 154.9 194.38 154.9ZM203.883 163.105C202.993 163.105 202.213 162.93 201.543 162.58C200.883 162.22 200.368 161.73 199.998 161.11C199.638 160.49 199.458 159.785 199.458 158.995C199.458 158.195 199.633 157.49 199.983 156.88C200.343 156.26 200.833 155.775 201.453 155.425C202.083 155.075 202.798 154.9 203.598 154.9C204.378 154.9 205.073 155.07 205.683 155.41C206.293 155.75 206.773 156.23 207.123 156.85C207.473 157.47 207.648 158.2 207.648 159.04C207.648 159.12 207.643 159.21 207.633 159.31C207.633 159.41 207.628 159.505 207.618 159.595H200.943V158.35H206.628L205.893 158.74C205.903 158.28 205.808 157.875 205.608 157.525C205.408 157.175 205.133 156.9 204.783 156.7C204.443 156.5 204.048 156.4 203.598 156.4C203.138 156.4 202.733 156.5 202.383 156.7C202.043 156.9 201.773 157.18 201.573 157.54C201.383 157.89 201.288 158.305 201.288 158.785V159.085C201.288 159.565 201.398 159.99 201.618 160.36C201.838 160.73 202.148 161.015 202.548 161.215C202.948 161.415 203.408 161.515 203.928 161.515C204.378 161.515 204.783 161.445 205.143 161.305C205.503 161.165 205.823 160.945 206.103 160.645L207.108 161.8C206.748 162.22 206.293 162.545 205.743 162.775C205.203 162.995 204.583 163.105 203.883 163.105ZM209.449 163V154.99H211.234V157.195L211.024 156.55C211.264 156.01 211.639 155.6 212.149 155.32C212.669 155.04 213.314 154.9 214.084 154.9V156.685C214.004 156.665 213.929 156.655 213.859 156.655C213.789 156.645 213.719 156.64 213.649 156.64C212.939 156.64 212.374 156.85 211.954 157.27C211.534 157.68 211.324 158.295 211.324 159.115V163H209.449ZM219.367 163.105C218.477 163.105 217.697 162.93 217.027 162.58C216.367 162.22 215.852 161.73 215.482 161.11C215.122 160.49 214.942 159.785 214.942 158.995C214.942 158.195 215.117 157.49 215.467 156.88C215.827 156.26 216.317 155.775 216.937 155.425C217.567 155.075 218.282 154.9 219.082 154.9C219.862 154.9 220.557 155.07 221.167 155.41C221.777 155.75 222.257 156.23 222.607 156.85C222.957 157.47 223.132 158.2 223.132 159.04C223.132 159.12 223.127 159.21 223.117 159.31C223.117 159.41 223.112 159.505 223.102 159.595H216.427V158.35H222.112L221.377 158.74C221.387 158.28 221.292 157.875 221.092 157.525C220.892 157.175 220.617 156.9 220.267 156.7C219.927 156.5 219.532 156.4 219.082 156.4C218.622 156.4 218.217 156.5 217.867 156.7C217.527 156.9 217.257 157.18 217.057 157.54C216.867 157.89 216.772 158.305 216.772 158.785V159.085C216.772 159.565 216.882 159.99 217.102 160.36C217.322 160.73 217.632 161.015 218.032 161.215C218.432 161.415 218.892 161.515 219.412 161.515C219.862 161.515 220.267 161.445 220.627 161.305C220.987 161.165 221.307 160.945 221.587 160.645L222.592 161.8C222.232 162.22 221.777 162.545 221.227 162.775C220.687 162.995 220.067 163.105 219.367 163.105ZM225.053 159.52L224.693 152.5H226.913L226.538 159.52H225.053ZM225.803 163.105C225.453 163.105 225.163 162.99 224.933 162.76C224.703 162.53 224.588 162.255 224.588 161.935C224.588 161.615 224.703 161.345 224.933 161.125C225.163 160.895 225.453 160.78 225.803 160.78C226.153 160.78 226.438 160.895 226.658 161.125C226.878 161.345 226.988 161.615 226.988 161.935C226.988 162.255 226.878 162.53 226.658 162.76C226.438 162.99 226.153 163.105 225.803 163.105Z" fill="#838383"/>
<rect x="82.4375" y="209.5" width="127.125" height="39" rx="6.5" fill="#144066"/>
<rect x="82.4375" y="209.5" width="127.125" height="39" rx="6.5" stroke="#838383"/>
<path d="M109.406 228.344V222.875C109.406 222.701 109.337 222.534 109.214 222.411C109.091 222.288 108.924 222.219 108.75 222.219C108.576 222.219 108.409 222.288 108.286 222.411C108.163 222.534 108.094 222.701 108.094 222.875V228.344H102.625C102.451 228.344 102.284 228.413 102.161 228.536C102.038 228.659 101.969 228.826 101.969 229C101.969 229.174 102.038 229.341 102.161 229.464C102.284 229.587 102.451 229.656 102.625 229.656H108.094V235.125C108.096 235.298 108.166 235.464 108.288 235.587C108.411 235.709 108.577 235.779 108.75 235.781C108.924 235.781 109.091 235.712 109.214 235.589C109.337 235.466 109.406 235.299 109.406 235.125V229.656H114.875C115.049 229.656 115.216 229.587 115.339 229.464C115.462 229.341 115.531 229.174 115.531 229C115.529 228.827 115.459 228.661 115.337 228.538C115.214 228.416 115.048 228.346 114.875 228.344H109.406Z" fill="white"/>
<path d="M127.907 233.598C127.254 233.598 126.646 233.488 126.082 233.267C125.527 233.047 125.045 232.74 124.637 232.348C124.228 231.948 123.91 231.483 123.681 230.952C123.452 230.421 123.338 229.841 123.338 229.212C123.338 228.584 123.452 228.004 123.681 227.473C123.91 226.942 124.228 226.481 124.637 226.089C125.045 225.689 125.527 225.378 126.082 225.158C126.637 224.937 127.246 224.827 127.907 224.827C128.561 224.827 129.161 224.937 129.708 225.158C130.263 225.37 130.745 225.676 131.154 226.076C131.57 226.468 131.889 226.93 132.109 227.461C132.338 227.992 132.452 228.575 132.452 229.212C132.452 229.849 132.338 230.433 132.109 230.964C131.889 231.495 131.57 231.961 131.154 232.361C130.745 232.753 130.263 233.059 129.708 233.279C129.161 233.492 128.561 233.598 127.907 233.598ZM127.907 232.508C128.381 232.508 128.818 232.426 129.218 232.263C129.626 232.099 129.978 231.871 130.272 231.577C130.574 231.275 130.806 230.923 130.97 230.523C131.141 230.123 131.227 229.686 131.227 229.212C131.227 228.739 131.141 228.302 130.97 227.902C130.806 227.502 130.574 227.154 130.272 226.86C129.978 226.558 129.626 226.326 129.218 226.162C128.818 225.999 128.381 225.917 127.907 225.917C127.425 225.917 126.98 225.999 126.572 226.162C126.172 226.326 125.821 226.558 125.519 226.86C125.216 227.154 124.98 227.502 124.808 227.902C124.645 228.302 124.563 228.739 124.563 229.212C124.563 229.686 124.645 230.123 124.808 230.523C124.98 230.923 125.216 231.275 125.519 231.577C125.821 231.871 126.172 232.099 126.572 232.263C126.98 232.426 127.425 232.508 127.907 232.508ZM137.595 233.574C137.056 233.574 136.562 233.451 136.113 233.206C135.672 232.953 135.317 232.581 135.047 232.091C134.786 231.601 134.655 230.989 134.655 230.254C134.655 229.519 134.782 228.906 135.035 228.416C135.296 227.926 135.647 227.559 136.088 227.314C136.538 227.069 137.04 226.946 137.595 226.946C138.232 226.946 138.796 227.085 139.286 227.363C139.776 227.64 140.164 228.028 140.449 228.526C140.735 229.016 140.878 229.592 140.878 230.254C140.878 230.915 140.735 231.495 140.449 231.993C140.164 232.491 139.776 232.879 139.286 233.157C138.796 233.435 138.232 233.574 137.595 233.574ZM134.153 235.877V227.007H135.28V228.759L135.206 230.266L135.329 231.773V235.877H134.153ZM137.497 232.544C137.914 232.544 138.285 232.451 138.612 232.263C138.947 232.075 139.208 231.809 139.396 231.466C139.592 231.115 139.69 230.711 139.69 230.254C139.69 229.788 139.592 229.388 139.396 229.053C139.208 228.71 138.947 228.445 138.612 228.257C138.285 228.069 137.914 227.975 137.497 227.975C137.089 227.975 136.717 228.069 136.382 228.257C136.056 228.445 135.794 228.71 135.598 229.053C135.411 229.388 135.317 229.788 135.317 230.254C135.317 230.711 135.411 231.115 135.598 231.466C135.794 231.809 136.056 232.075 136.382 232.263C136.717 232.451 137.089 232.544 137.497 232.544ZM145.394 233.574C144.7 233.574 144.087 233.431 143.556 233.145C143.034 232.859 142.625 232.467 142.331 231.969C142.046 231.471 141.903 230.899 141.903 230.254C141.903 229.609 142.042 229.037 142.319 228.539C142.605 228.041 142.993 227.653 143.483 227.375C143.981 227.089 144.541 226.946 145.161 226.946C145.79 226.946 146.345 227.085 146.827 227.363C147.309 227.64 147.685 228.032 147.954 228.539C148.232 229.037 148.371 229.621 148.371 230.29C148.371 230.339 148.367 230.397 148.358 230.462C148.358 230.527 148.354 230.589 148.346 230.646H142.821V229.8H147.734L147.256 230.094C147.264 229.678 147.178 229.306 146.999 228.98C146.819 228.653 146.57 228.4 146.251 228.22C145.941 228.032 145.578 227.938 145.161 227.938C144.753 227.938 144.389 228.032 144.071 228.22C143.752 228.4 143.503 228.657 143.324 228.992C143.144 229.319 143.054 229.694 143.054 230.119V230.315C143.054 230.748 143.152 231.136 143.348 231.479C143.552 231.814 143.834 232.075 144.193 232.263C144.553 232.451 144.965 232.544 145.431 232.544C145.815 232.544 146.162 232.479 146.472 232.348C146.79 232.218 147.068 232.022 147.305 231.76L147.954 232.52C147.66 232.863 147.293 233.124 146.852 233.304C146.419 233.484 145.933 233.574 145.394 233.574ZM153.47 226.946C154.001 226.946 154.467 227.048 154.867 227.252C155.275 227.457 155.594 227.767 155.822 228.183C156.051 228.6 156.165 229.127 156.165 229.764V233.5H154.989V229.899C154.989 229.27 154.834 228.796 154.524 228.477C154.222 228.159 153.793 228 153.238 228C152.821 228 152.458 228.081 152.147 228.245C151.837 228.408 151.596 228.649 151.425 228.967C151.261 229.286 151.18 229.682 151.18 230.156V233.5H150.004V227.007H151.131V228.759L150.947 228.294C151.159 227.869 151.486 227.538 151.927 227.301C152.368 227.065 152.882 226.946 153.47 226.946ZM165.662 233.5V232.128L165.601 231.871V229.531C165.601 229.033 165.454 228.649 165.16 228.379C164.874 228.102 164.441 227.963 163.861 227.963C163.477 227.963 163.102 228.028 162.734 228.159C162.367 228.281 162.056 228.449 161.803 228.661L161.313 227.779C161.648 227.51 162.048 227.306 162.514 227.167C162.987 227.02 163.481 226.946 163.996 226.946C164.886 226.946 165.572 227.163 166.054 227.595C166.536 228.028 166.777 228.69 166.777 229.58V233.5H165.662ZM163.53 233.574C163.049 233.574 162.624 233.492 162.256 233.328C161.897 233.165 161.619 232.941 161.423 232.655C161.227 232.361 161.129 232.03 161.129 231.662C161.129 231.311 161.211 230.993 161.374 230.707C161.546 230.421 161.819 230.192 162.195 230.021C162.579 229.849 163.093 229.764 163.739 229.764H165.797V230.609H163.788C163.2 230.609 162.804 230.707 162.599 230.903C162.395 231.099 162.293 231.336 162.293 231.613C162.293 231.932 162.42 232.189 162.673 232.385C162.926 232.573 163.277 232.667 163.726 232.667C164.167 232.667 164.551 232.569 164.878 232.373C165.213 232.177 165.454 231.891 165.601 231.515L165.833 232.324C165.678 232.708 165.405 233.014 165.013 233.243C164.621 233.463 164.127 233.574 163.53 233.574ZM173.517 233.598C173.01 233.598 172.537 233.492 172.096 233.279C171.655 233.067 171.295 232.761 171.018 232.361L171.728 231.528C171.965 231.854 172.23 232.108 172.524 232.287C172.827 232.459 173.157 232.544 173.517 232.544C174.497 232.544 174.987 231.965 174.987 230.805V225.991H171.887V224.925H176.199V230.744C176.199 231.699 175.971 232.414 175.513 232.887C175.064 233.361 174.399 233.598 173.517 233.598ZM181.304 233.574C180.651 233.574 180.071 233.431 179.564 233.145C179.058 232.859 178.658 232.467 178.364 231.969C178.07 231.462 177.923 230.891 177.923 230.254C177.923 229.609 178.07 229.037 178.364 228.539C178.658 228.041 179.058 227.653 179.564 227.375C180.071 227.089 180.651 226.946 181.304 226.946C181.949 226.946 182.525 227.089 183.031 227.375C183.546 227.653 183.946 228.041 184.232 228.539C184.526 229.029 184.673 229.6 184.673 230.254C184.673 230.899 184.526 231.471 184.232 231.969C183.946 232.467 183.546 232.859 183.031 233.145C182.525 233.431 181.949 233.574 181.304 233.574ZM181.304 232.544C181.72 232.544 182.092 232.451 182.419 232.263C182.754 232.075 183.015 231.809 183.203 231.466C183.391 231.115 183.484 230.711 183.484 230.254C183.484 229.788 183.391 229.388 183.203 229.053C183.015 228.71 182.754 228.445 182.419 228.257C182.092 228.069 181.72 227.975 181.304 227.975C180.887 227.975 180.516 228.069 180.189 228.257C179.863 228.445 179.601 228.71 179.405 229.053C179.209 229.388 179.111 229.788 179.111 230.254C179.111 230.711 179.209 231.115 179.405 231.466C179.601 231.809 179.863 232.075 180.189 232.263C180.516 232.451 180.887 232.544 181.304 232.544ZM189.741 233.574C189.186 233.574 188.684 233.451 188.235 233.206C187.794 232.953 187.442 232.581 187.181 232.091C186.928 231.601 186.801 230.989 186.801 230.254C186.801 229.519 186.932 228.906 187.193 228.416C187.463 227.926 187.818 227.559 188.259 227.314C188.708 227.069 189.202 226.946 189.741 226.946C190.378 226.946 190.942 227.085 191.432 227.363C191.922 227.64 192.31 228.028 192.596 228.526C192.881 229.016 193.024 229.592 193.024 230.254C193.024 230.915 192.881 231.495 192.596 231.993C192.31 232.491 191.922 232.879 191.432 233.157C190.942 233.435 190.378 233.574 189.741 233.574ZM186.299 233.5V224.41H187.475V228.735L187.353 230.241L187.426 231.748V233.5H186.299ZM189.643 232.544C190.06 232.544 190.431 232.451 190.758 232.263C191.093 232.075 191.354 231.809 191.542 231.466C191.738 231.115 191.836 230.711 191.836 230.254C191.836 229.788 191.738 229.388 191.542 229.053C191.354 228.71 191.093 228.445 190.758 228.257C190.431 228.069 190.06 227.975 189.643 227.975C189.235 227.975 188.863 228.069 188.529 228.257C188.202 228.445 187.941 228.71 187.745 229.053C187.557 229.388 187.463 229.788 187.463 230.254C187.463 230.711 187.557 231.115 187.745 231.466C187.941 231.809 188.202 232.075 188.529 232.263C188.863 232.451 189.235 232.544 189.643 232.544Z" fill="white"/>
</svg>
