<svg width="39" height="38" viewBox="0 0 39 38" fill="none" xmlns="http://www.w3.org/2000/svg">
<rect x="0.5" width="38" height="38" rx="1" fill="white"/>
<path fill-rule="evenodd" clip-rule="evenodd" d="M27.708 19.1943C27.708 18.5881 27.6536 18.0051 27.5525 17.4455H19.5V20.7528H24.1015C23.9032 21.8215 23.3009 22.727 22.3953 23.3333V25.4786H25.1585C26.7753 23.9901 27.708 21.7982 27.708 19.1943Z" fill="#4285F4"/>
<path fill-rule="evenodd" clip-rule="evenodd" d="M19.5 27.55C21.8085 27.55 23.7439 26.7844 25.1585 25.4786L22.3953 23.3333C21.6297 23.8463 20.6503 24.1494 19.5 24.1494C17.2731 24.1494 15.3882 22.6454 14.7159 20.6245H11.8594V22.8397C13.2662 25.634 16.1577 27.55 19.5 27.55Z" fill="#34A853"/>
<path fill-rule="evenodd" clip-rule="evenodd" d="M14.7158 20.6245C14.5448 20.1115 14.4477 19.5635 14.4477 19C14.4477 18.4365 14.5448 17.8885 14.7158 17.3755V15.1603H11.8594C11.2803 16.3145 10.95 17.6203 10.95 19C10.95 20.3797 11.2803 21.6855 11.8594 22.8397L14.7158 20.6245Z" fill="#FBBC05"/>
<path fill-rule="evenodd" clip-rule="evenodd" d="M19.5 13.8506C20.7553 13.8506 21.8823 14.282 22.7684 15.1292L25.2207 12.6769C23.74 11.2972 21.8046 10.45 19.5 10.45C16.1577 10.45 13.2662 12.366 11.8594 15.1603L14.7159 17.3755C15.3882 15.3546 17.2731 13.8506 19.5 13.8506Z" fill="#EA4335"/>
</svg>
